<svg width="18" height="24" viewBox="0 0 18 24" fill="none" xmlns="http://www.w3.org/2000/svg">
<g id="Livello_1" clip-path="url(#clip0_46_123)">
<path id="Vector" d="M0.326441 11.2704C-0.0592548 11.5733 -0.11034 12.1096 0.211499 12.4727C0.533338 12.8357 1.10294 12.8838 1.48864 12.5809C1.52951 12.5472 1.57038 12.5111 1.60358 12.4727L8.12721 6.33859L8.12721 20.9955C8.15275 21.4668 8.58187 21.8299 9.08251 21.8059C9.54739 21.7818 9.91776 21.4332 9.9433 20.9955L9.9433 6.33859L16.4593 12.4823C16.8169 12.8045 17.3788 12.8045 17.7364 12.4823C18.0889 12.1504 18.0889 11.6142 17.7364 11.2824L9.66489 3.68395C9.32517 3.35212 8.76322 3.3425 8.41073 3.66231C8.40307 3.66952 8.39541 3.67674 8.38775 3.68395L0.326441 11.2704Z" fill="#EF5D80"/>
</g>
<defs>
<clipPath id="clip0_46_123">
<rect width="24" height="18" fill="white" transform="translate(0 24) rotate(-90)"/>
</clipPath>
</defs>
</svg>
